<svg width="29" height="36" viewBox="0 0 29 36" fill="none" xmlns="http://www.w3.org/2000/svg">
<g clip-path="url(#clip0_131_1417)">
<path d="M8.35562 24.6706C8.38802 24.4519 8.40422 24.2332 8.40422 24.0145C8.40422 22.9048 8.02352 21.8842 7.38362 21.0742C7.36742 21.058 7.35122 21.0418 7.34312 21.0256V21.0094C7.07581 20.6935 6.92191 20.2885 6.92191 19.843C6.92191 19.4623 7.04341 19.1058 7.24591 18.8142C7.24591 18.8142 7.24591 18.8142 7.24591 18.8061C5.9094 15.9954 5.1642 12.8526 5.1642 9.53157C5.1642 6.30775 5.8689 3.24592 7.13251 0.5C4.17599 2.46022 2.23198 5.81364 2.23198 9.62877C2.23198 10.3173 2.29678 10.9896 2.41828 11.6457C1.85127 11.3541 1.21947 11.184 0.539062 11.1759C1.65687 12.3828 2.33728 14.0028 2.33728 15.7767C2.33728 16.8135 2.10237 17.7936 1.68117 18.6684C1.97277 18.8223 2.17528 19.1221 2.17528 19.4785C2.17528 19.7215 2.07807 19.9321 1.93227 20.0941C1.16277 20.9365 0.684863 22.0624 0.684863 23.3017C0.684863 25.1647 1.76217 26.7766 3.32548 27.5623C3.60089 29.8465 5.1399 31.7419 7.22161 32.5277C6.61411 31.5799 6.26581 30.4621 6.26581 29.2552C6.26581 28.7773 6.32251 28.3156 6.42781 27.862C7.45652 27.1168 8.16932 25.9828 8.35562 24.6706ZM5.9904 24.9136C5.958 24.9946 5.9337 25.0837 5.9013 25.1647C5.4963 26.323 5.2776 27.5704 5.2776 28.8664C5.2776 29.158 5.2938 29.4496 5.3181 29.7331C4.37849 28.3156 3.75479 26.6794 3.53609 24.9136C3.51989 24.8083 3.51179 24.703 3.50369 24.5896C3.51989 23.9011 4.07879 23.3503 4.76729 23.3503C5.472 23.3503 6.03901 23.9173 6.03901 24.622C6.0228 24.7192 6.0147 24.8164 5.9904 24.9136Z" fill="url(#paint0_linear_131_1417)"/>
<path d="M19.9695 28.1039V28.0958C19.9614 28.0229 19.9614 27.9581 19.9533 27.8852C19.9371 27.6989 19.9209 27.5126 19.9047 27.3344C19.8966 27.2534 19.8885 27.1724 19.8723 27.0914C19.848 26.8969 19.8156 26.7025 19.7832 26.5081C19.7751 26.4676 19.767 26.419 19.7589 26.3785C19.7184 26.1841 19.6779 25.9897 19.6374 25.8034C19.6212 25.7224 19.5969 25.6495 19.5807 25.5685C19.5564 25.4632 19.524 25.3498 19.4916 25.2445C19.4673 25.1473 19.443 25.0582 19.4106 24.9691C19.3944 24.9124 19.3701 24.8557 19.3539 24.799C19.281 24.5803 19.2081 24.3616 19.1271 24.151C19.1109 24.1024 19.0947 24.0538 19.0704 24.0133C18.714 23.1061 18.2604 22.2394 17.7177 21.4375C17.2965 20.5303 17.0616 19.5259 17.0616 18.4567C17.0616 17.6224 17.2074 16.8124 17.4747 16.0672C17.337 16.294 17.094 16.4479 16.8105 16.4479C16.3974 16.4479 16.0572 16.1239 16.041 15.7108C16.0167 15.5164 15.9843 15.3301 15.9438 15.1438C15.9357 15.1195 15.9357 15.0871 15.9276 15.0628C15.8871 14.8846 15.8466 14.6983 15.798 14.5281C15.7899 14.5038 15.7818 14.4795 15.7737 14.4471C15.7251 14.2608 15.6684 14.0826 15.6117 13.9044C15.6117 13.8963 15.6117 13.8963 15.6036 13.8882C15.5388 13.6938 15.4659 13.5075 15.393 13.3212C15.3282 13.1592 15.2553 12.9972 15.1743 12.8352C15.1662 12.819 15.1581 12.7947 15.1419 12.7785C14.9961 12.4707 14.8341 12.1791 14.6478 11.8875C14.6316 11.8632 14.6235 11.8389 14.6073 11.8227C14.5101 11.6769 14.421 11.5311 14.3157 11.3934L14.3076 11.3853C14.2104 11.2476 14.1051 11.1099 13.9998 10.9803C13.9917 10.9641 13.9755 10.956 13.9674 10.9398C13.8621 10.8102 13.7487 10.6806 13.6352 10.551C13.619 10.5348 13.6109 10.5186 13.5947 10.5024C13.4813 10.3809 13.3679 10.2594 13.2545 10.146C13.2464 10.1379 13.2383 10.1298 13.2383 10.1298C13.1168 10.0083 12.9953 9.89491 12.8738 9.78961C12.8495 9.76531 12.8252 9.74911 12.8009 9.72481C12.5579 9.51421 12.2987 9.31171 12.0395 9.1254C12.0071 9.1011 11.9747 9.07681 11.9423 9.0606C11.8046 8.9634 11.6669 8.8743 11.5292 8.7933C11.513 8.7852 11.4968 8.7771 11.4806 8.7609C11.351 8.6799 11.2214 8.607 11.0837 8.5341C11.0594 8.5179 11.027 8.5017 11.0027 8.4936C10.8569 8.4207 10.7111 8.3478 10.5653 8.2749C10.5329 8.2587 10.5086 8.2506 10.4762 8.2344C10.3385 8.1696 10.2008 8.1129 10.0631 8.0562C10.0388 8.0481 10.0226 8.04 9.99832 8.0319C9.84442 7.9752 9.69052 7.91849 9.53662 7.86179C9.50422 7.85369 9.46372 7.83749 9.43132 7.82939C9.26932 7.78079 9.11541 7.73219 8.94531 7.68359C10.8326 9.44131 12.0071 11.9523 12.0071 14.7307C12.0071 15.2653 11.9585 15.7837 11.8775 16.294C12.3311 17.3146 12.5822 18.4486 12.5822 19.6393C12.5822 20.4574 12.4607 21.2512 12.242 22.0045C12.1772 22.2232 12.1286 22.4419 12.0962 22.6687C12.0881 22.7416 12.08 22.8145 12.0719 22.8712C12.0719 22.8955 12.0638 22.9198 12.0638 22.9441C12.0476 23.1304 12.0395 23.3167 12.0395 23.503C12.0395 23.9323 12.08 24.3454 12.1529 24.7504C12.1448 24.7747 12.1367 24.799 12.1205 24.8233C12.1367 24.8152 12.1448 24.8071 12.161 24.7909C12.1934 24.9529 12.2258 25.1149 12.2663 25.2769C12.3797 25.7143 12.5336 26.1355 12.7199 26.5324C13.0277 27.1886 13.4489 27.7961 13.935 28.3226C14.8098 28.6547 15.5712 29.2136 16.1301 29.9426C16.1301 29.9426 16.1382 29.9426 16.1382 29.9507C16.1544 29.9669 16.1625 29.9912 16.1787 30.0155C16.3407 30.2342 16.4865 30.461 16.6161 30.704C17.1345 31.5707 17.5476 32.4941 17.8635 33.4742C18.0579 34.0817 18.2037 34.7135 18.309 35.3534C18.3171 35.402 18.3252 35.4506 18.3333 35.4992C18.3576 35.402 18.3738 35.2967 18.39 35.1995C19.1433 33.7982 19.6536 32.243 19.8642 30.5906C19.8885 30.3719 19.9128 30.1532 19.929 29.9264C19.9371 29.8535 19.9371 29.7806 19.9452 29.7077C19.9533 29.6267 19.9533 29.5457 19.9614 29.4647C19.9695 29.2784 19.9776 29.0921 19.9776 28.9058C19.9938 28.6142 19.9857 28.355 19.9695 28.1039ZM18.6573 30.5663C18.5925 31.0037 18.5115 31.4411 18.4062 31.8623C18.309 31.3925 18.1794 30.9308 18.0093 30.4934C17.4747 29.084 16.5756 27.8447 15.4335 26.8969C15.3444 26.8402 15.2715 26.7754 15.1905 26.7106C15.1338 26.662 15.0852 26.6053 15.0366 26.5486C15.0285 26.5405 15.0285 26.5405 15.0204 26.5324C14.9718 26.4757 14.9313 26.419 14.8908 26.3623C14.8017 26.2246 14.7288 26.0707 14.6802 25.9087C14.6802 25.9006 14.6721 25.8925 14.6721 25.8844C14.6559 25.8196 14.6397 25.7467 14.6235 25.6819C14.6235 25.6657 14.6154 25.6414 14.6154 25.6252C14.6073 25.5442 14.5992 25.4632 14.5992 25.3822C14.5992 24.3859 15.4092 23.5759 16.4055 23.5759C17.013 23.5759 17.5557 23.8756 17.8797 24.3373C18.0012 24.6289 18.1065 24.9367 18.2037 25.2364C18.2685 25.4308 18.3252 25.6333 18.3738 25.8358C18.3819 25.8763 18.3981 25.9249 18.4062 25.9654C18.4548 26.1679 18.5034 26.3785 18.5439 26.5891C18.5439 26.5891 18.5439 26.5891 18.5439 26.5972C18.5844 26.8159 18.6168 27.0347 18.6492 27.2534C18.6492 27.2777 18.6573 27.302 18.6573 27.3263C18.6897 27.5531 18.7059 27.7799 18.7221 28.0067C18.7302 28.1444 18.7383 28.2902 18.7464 28.4279C18.7545 28.5737 18.7545 28.7195 18.7545 28.8653C18.7788 29.4485 18.7302 30.0155 18.6573 30.5663Z" fill="url(#paint1_linear_131_1417)"/>
<path fill-rule="evenodd" clip-rule="evenodd" d="M28.4607 21.3655C28.4607 20.5231 28.1934 19.7455 27.756 19.0975C26.9946 18.5143 26.5005 17.599 26.5005 16.5622C26.5005 16.1167 26.5896 15.6955 26.7516 15.3148C25.4232 14.9665 24.4431 13.7595 24.4431 12.3258C24.4431 12.3015 24.4431 12.2853 24.4431 12.261C24.1677 12.2124 23.9409 12.0342 23.8275 11.7912C22.086 8.86711 19.4291 6.55049 16.2539 5.23828C18.1169 7.5144 19.4696 10.2198 20.1419 13.1925C20.2553 13.6785 20.3444 14.1727 20.4173 14.6668C21.122 15.3877 21.5513 16.3759 21.5513 17.4613C21.5513 17.8015 21.5027 18.1255 21.4298 18.4414C22.1265 19.1623 22.5639 20.1505 22.5639 21.2359C22.5639 21.7624 22.4586 22.2646 22.2804 22.7263C22.7502 23.0584 23.1957 23.4148 23.625 23.8036C23.7465 23.9332 23.868 24.0547 24.0057 24.1681C24.3945 24.5569 24.7671 24.97 25.0992 25.4074C26.1603 26.7764 26.9622 28.3721 27.4077 30.1055C28.0152 28.607 28.3554 26.9627 28.3554 25.2454C28.3554 24.4597 28.2825 23.6902 28.1448 22.9369C28.3473 22.4509 28.4607 21.9244 28.4607 21.3655ZM27.1404 26.5253C26.6706 25.0591 25.7634 23.7388 24.4917 22.7668C24.4755 22.7587 24.4674 22.7425 24.4512 22.7344C24.1596 22.5238 23.9733 22.1917 23.9733 21.8029C23.9733 21.1711 24.4917 20.6527 25.1235 20.6527C25.4961 20.6527 25.8201 20.8309 26.0307 21.1063C26.0631 21.1549 26.0874 21.1954 26.1198 21.2359C27.0756 22.8073 27.4563 24.6865 27.1404 26.5253Z" fill="url(#paint2_linear_131_1417)"/>
</g>
<defs>
<linearGradient id="paint0_linear_131_1417" x1="7.60171" y1="32.5277" x2="-11.4461" y2="25.9541" gradientUnits="userSpaceOnUse">
<stop stop-color="#3FC02F"/>
<stop offset="1" stop-color="#52E040"/>
</linearGradient>
<linearGradient id="paint1_linear_131_1417" x1="18.8599" y1="35.4992" x2="-3.96243" y2="22.7683" gradientUnits="userSpaceOnUse">
<stop stop-color="#3FC02F"/>
<stop offset="1" stop-color="#52E040"/>
</linearGradient>
<linearGradient id="paint2_linear_131_1417" x1="27.2152" y1="30.1055" x2="4.79934" y2="14.6421" gradientUnits="userSpaceOnUse">
<stop stop-color="#3FC02F"/>
<stop offset="1" stop-color="#52E040"/>
</linearGradient>
<clipPath id="clip0_131_1417">
<rect width="29" height="36" fill="white"/>
</clipPath>
</defs>
</svg>
