<svg width="56" height="56" viewBox="0 0 56 56" fill="none" xmlns="http://www.w3.org/2000/svg">
<path d="M53.495 26.312C53.8699 40.9341 42.6221 53.3067 28 53.3067C13.3778 53.3067 2.13003 40.9341 2.50496 26.312C2.87988 12.0648 14.5026 1.19189 28 1.19189C41.8722 1.19189 53.12 12.0648 53.495 26.312Z" fill="#4B2578"/>
<path d="M18.4919 18.7229C18.4919 18.7229 21.4914 19.0979 24.1158 11.9743C24.1158 11.9743 28.615 9.72471 33.489 10.4746L34.2389 45.7177H23.366L22.2412 25.8466L18.4919 25.4716V18.7229Z" fill="url(#paint0_linear_546_1703)"/>
<path d="M2.29565 26.3119C2.29565 26.3119 7.94281 4.09978 28.649 4.09978C48.2258 4.09978 53.12 21.0412 53.12 21.0412C53.12 21.0412 49.7317 0.335016 27.5196 0.711493C4.931 1.46445 2.29565 23.6766 2.29565 26.3119Z" fill="#0B2233"/>
<path d="M2.29565 26.3119C2.29565 26.3119 7.94281 4.09978 28.649 4.09978C48.2258 4.09978 53.12 21.0412 53.12 21.0412C53.12 21.0412 49.7317 0.335016 27.5196 0.711493C4.931 1.46445 2.29565 23.6766 2.29565 26.3119Z" fill="#35155B"/>
<path d="M6.25439 40.4126C6.25439 40.4126 13.828 53.6664 29.7326 52.909C46.0159 52.1517 52.0748 36.2471 52.0748 36.2471C52.0748 36.2471 44.5012 55.1811 28.9753 55.1811C13.4493 55.5598 6.25439 40.4126 6.25439 40.4126Z" fill="#0B2233"/>
<path d="M6.25439 40.4126C6.25439 40.4126 13.828 53.6664 29.7326 52.909C46.0159 52.1517 52.0748 36.2471 52.0748 36.2471C52.0748 36.2471 44.5012 55.1811 28.9753 55.1811C13.4493 55.5598 6.25439 40.4126 6.25439 40.4126Z" fill="#582E89"/>
<defs>
<linearGradient id="paint0_linear_546_1703" x1="32.6321" y1="45.7177" x2="1.94792" y2="26.5341" gradientUnits="userSpaceOnUse">
<stop stop-color="#00C37A"/>
<stop offset="1" stop-color="#27D84A"/>
</linearGradient>
</defs>
</svg>
