<svg width="56" height="56" viewBox="0 0 56 56" fill="none" xmlns="http://www.w3.org/2000/svg">
<path d="M53.495 26.312C53.8699 40.9341 42.6221 53.3067 28 53.3067C13.3778 53.3067 2.13003 40.9341 2.50496 26.312C2.87988 12.0648 14.5026 1.19189 28 1.19189C41.8722 1.19189 53.12 12.0648 53.495 26.312Z" fill="#4B2578"/>
<g clip-path="url(#clip0_546_1710)">
<path d="M42.1176 45.2812C42.1176 45.2812 30.6247 42.4193 12.6875 42.4193C32.0862 29.1772 33.3488 22.5234 25.7751 22.5234C18.3345 22.5234 13.7601 28.2473 13.7601 28.2473C16.0167 18.132 21.465 10.2812 32.0949 10.2812C40.9313 10.2812 43.1902 15.0709 43.1902 18.9306C43.1902 26.2496 36.5448 30.2428 30.2337 34.6998C37.3422 34.6998 43.3212 31.9057 43.3212 31.9057C43.3212 31.9057 42.1176 37.3627 42.1176 45.2812Z" fill="url(#paint0_linear_546_1710)"/>
</g>
<path d="M2.29565 26.3119C2.29565 26.3119 7.94281 4.09978 28.649 4.09978C48.2258 4.09978 53.12 21.0412 53.12 21.0412C53.12 21.0412 49.7317 0.335016 27.5196 0.711493C4.931 1.46445 2.29565 23.6766 2.29565 26.3119Z" fill="#35155B"/>
<path d="M6.25439 40.4126C6.25439 40.4126 13.828 53.6664 29.7326 52.909C46.0159 52.1517 52.0748 36.2471 52.0748 36.2471C52.0748 36.2471 44.5012 55.1811 28.9753 55.1811C13.4493 55.5598 6.25439 40.4126 6.25439 40.4126Z" fill="#0B2233"/>
<path d="M6.25439 40.4126C6.25439 40.4126 13.828 53.6664 29.7326 52.909C46.0159 52.1517 52.0748 36.2471 52.0748 36.2471C52.0748 36.2471 44.5012 55.1811 28.9753 55.1811C13.4493 55.5598 6.25439 40.4126 6.25439 40.4126Z" fill="#582E89"/>
<defs>
<linearGradient id="paint0_linear_546_1710" x1="40.1955" y1="45.2813" x2="7.15649" y2="4.64302" gradientUnits="userSpaceOnUse">
<stop stop-color="#00C37A"/>
<stop offset="1" stop-color="#27D84A"/>
</linearGradient>
<clipPath id="clip0_546_1710">
<rect width="30.625" height="35" fill="white" transform="translate(12.6875 10.2812)"/>
</clipPath>
</defs>
</svg>
