<svg width="56" height="56" viewBox="0 0 56 56" fill="none" xmlns="http://www.w3.org/2000/svg">
<path d="M53.495 26.312C53.8699 40.9341 42.6221 53.3067 28 53.3067C13.3778 53.3067 2.13003 40.9341 2.50496 26.312C2.87988 12.0648 14.5026 1.19189 28 1.19189C41.8722 1.19189 53.12 12.0648 53.495 26.312Z" fill="#4B2578"/>
<path d="M2.29565 26.3119C2.29565 26.3119 7.94281 4.09978 28.649 4.09978C48.2258 4.09978 53.12 21.0412 53.12 21.0412C53.12 21.0412 49.7317 0.335016 27.5196 0.711493C4.931 1.46445 2.29565 23.6766 2.29565 26.3119Z" fill="#35155B"/>
<path d="M6.25439 40.4126C6.25439 40.4126 13.828 53.6664 29.7326 52.909C46.0159 52.1517 52.0748 36.2471 52.0748 36.2471C52.0748 36.2471 44.5012 55.1811 28.9753 55.1811C13.4493 55.5598 6.25439 40.4126 6.25439 40.4126Z" fill="#0B2233"/>
<path d="M6.25439 40.4126C6.25439 40.4126 13.828 53.6664 29.7326 52.909C46.0159 52.1517 52.0748 36.2471 52.0748 36.2471C52.0748 36.2471 44.5012 55.1811 28.9753 55.1811C13.4493 55.5598 6.25439 40.4126 6.25439 40.4126Z" fill="#582E89"/>
<g clip-path="url(#clip0_546_1717)">
<path d="M34.0287 26.4809C34.0287 26.4809 40.7782 26.6137 40.7782 32.767C40.7782 38.7223 36.6492 45.87 20.7257 48.7813C15.2864 44.4796 11.8125 35.613 11.8125 35.613C23.5423 38.6592 30.7509 36.9359 30.7509 33.7613C30.7509 29.9231 21.0533 31.9075 20.5942 31.0481L29.5721 22.5122C20.1999 22.5122 13.8404 25.4235 13.8404 25.4235C13.8404 25.4235 16.9221 17.808 16.9221 11.5938C16.9221 11.5938 29.3738 13.3149 44.1853 11.7918C44.1875 11.7918 41.4441 18.9373 34.0287 26.4809Z" fill="url(#paint0_linear_546_1717)"/>
</g>
<defs>
<linearGradient id="paint0_linear_546_1717" x1="40.8822" y1="48.7813" x2="5.73992" y2="5.78915" gradientUnits="userSpaceOnUse">
<stop stop-color="#00C37A"/>
<stop offset="1" stop-color="#27D84A"/>
</linearGradient>
<clipPath id="clip0_546_1717">
<rect width="32.375" height="37.1875" fill="white" transform="translate(11.8125 11.5938)"/>
</clipPath>
</defs>
</svg>
